<mxfile host="app.diagrams.net" agent="Mozilla/5.0 (Macintosh; Intel Mac OS X 10_15_7) AppleWebKit/537.36 (KHTML, like Gecko) Chrome/137.0.0.0 Safari/537.36" version="28.1.1">
  <diagram name="Страница — 1" id="v3K62G69vaf2ah6xvEGu">
    <mxGraphModel dx="1968" dy="1871" grid="1" gridSize="10" guides="1" tooltips="1" connect="1" arrows="1" fold="1" page="1" pageScale="1" pageWidth="1169" pageHeight="827" math="0" shadow="0">
      <root>
        <mxCell id="0" />
        <mxCell id="1" parent="0" />
        <mxCell id="yje0GHTI1Kr3Gyo0A5Ic-7" style="edgeStyle=orthogonalEdgeStyle;rounded=0;orthogonalLoop=1;jettySize=auto;html=1;" edge="1" parent="1" source="yje0GHTI1Kr3Gyo0A5Ic-2" target="yje0GHTI1Kr3Gyo0A5Ic-5">
          <mxGeometry relative="1" as="geometry">
            <Array as="points">
              <mxPoint x="320" y="70" />
              <mxPoint x="320" y="70" />
            </Array>
          </mxGeometry>
        </mxCell>
        <mxCell id="yje0GHTI1Kr3Gyo0A5Ic-8" value="Идентификатор" style="edgeLabel;html=1;align=center;verticalAlign=middle;resizable=0;points=[];" vertex="1" connectable="0" parent="yje0GHTI1Kr3Gyo0A5Ic-7">
          <mxGeometry x="-0.1727" y="2" relative="1" as="geometry">
            <mxPoint x="17" y="2" as="offset" />
          </mxGeometry>
        </mxCell>
        <mxCell id="yje0GHTI1Kr3Gyo0A5Ic-2" value="Клиент" style="shape=umlActor;verticalLabelPosition=bottom;verticalAlign=top;html=1;outlineConnect=0;" vertex="1" parent="1">
          <mxGeometry x="110" y="50" width="30" height="60" as="geometry" />
        </mxCell>
        <mxCell id="yje0GHTI1Kr3Gyo0A5Ic-10" style="edgeStyle=orthogonalEdgeStyle;rounded=0;orthogonalLoop=1;jettySize=auto;html=1;" edge="1" parent="1">
          <mxGeometry relative="1" as="geometry">
            <mxPoint x="460" y="70" as="sourcePoint" />
            <mxPoint x="640" y="70" as="targetPoint" />
          </mxGeometry>
        </mxCell>
        <mxCell id="yje0GHTI1Kr3Gyo0A5Ic-11" value="Идентификатор" style="edgeLabel;html=1;align=center;verticalAlign=middle;resizable=0;points=[];" vertex="1" connectable="0" parent="yje0GHTI1Kr3Gyo0A5Ic-10">
          <mxGeometry x="-0.3079" y="2" relative="1" as="geometry">
            <mxPoint x="18" y="2" as="offset" />
          </mxGeometry>
        </mxCell>
        <mxCell id="yje0GHTI1Kr3Gyo0A5Ic-19" style="edgeStyle=orthogonalEdgeStyle;rounded=0;orthogonalLoop=1;jettySize=auto;html=1;" edge="1" parent="1" source="yje0GHTI1Kr3Gyo0A5Ic-9" target="yje0GHTI1Kr3Gyo0A5Ic-17">
          <mxGeometry relative="1" as="geometry" />
        </mxCell>
        <mxCell id="yje0GHTI1Kr3Gyo0A5Ic-32" style="edgeStyle=orthogonalEdgeStyle;rounded=0;orthogonalLoop=1;jettySize=auto;html=1;" edge="1" parent="1">
          <mxGeometry relative="1" as="geometry">
            <mxPoint x="640" y="90" as="sourcePoint" />
            <mxPoint x="460" y="90" as="targetPoint" />
          </mxGeometry>
        </mxCell>
        <mxCell id="yje0GHTI1Kr3Gyo0A5Ic-33" value="Мед. данные и перс. данные" style="edgeLabel;html=1;align=center;verticalAlign=middle;resizable=0;points=[];" vertex="1" connectable="0" parent="yje0GHTI1Kr3Gyo0A5Ic-32">
          <mxGeometry x="0.2843" relative="1" as="geometry">
            <mxPoint x="25" as="offset" />
          </mxGeometry>
        </mxCell>
        <mxCell id="yje0GHTI1Kr3Gyo0A5Ic-42" style="edgeStyle=orthogonalEdgeStyle;rounded=0;orthogonalLoop=1;jettySize=auto;html=1;" edge="1" parent="1" source="yje0GHTI1Kr3Gyo0A5Ic-9" target="yje0GHTI1Kr3Gyo0A5Ic-40">
          <mxGeometry relative="1" as="geometry" />
        </mxCell>
        <mxCell id="yje0GHTI1Kr3Gyo0A5Ic-51" value="&lt;font style=&quot;font-size: 9px;&quot;&gt;Данные клиентов&lt;/font&gt;&lt;div&gt;&lt;font style=&quot;font-size: 9px;&quot;&gt;&amp;nbsp;для аналитики&lt;/font&gt;&lt;/div&gt;" style="edgeLabel;html=1;align=center;verticalAlign=middle;resizable=0;points=[];" vertex="1" connectable="0" parent="yje0GHTI1Kr3Gyo0A5Ic-42">
          <mxGeometry x="0.1153" relative="1" as="geometry">
            <mxPoint as="offset" />
          </mxGeometry>
        </mxCell>
        <mxCell id="yje0GHTI1Kr3Gyo0A5Ic-9" value="Домен клиента" style="rounded=0;whiteSpace=wrap;html=1;" vertex="1" parent="1">
          <mxGeometry x="640" y="50" width="120" height="60" as="geometry" />
        </mxCell>
        <mxCell id="yje0GHTI1Kr3Gyo0A5Ic-15" value="" style="group" vertex="1" connectable="0" parent="1">
          <mxGeometry x="340" y="50" width="120" height="60" as="geometry" />
        </mxCell>
        <mxCell id="yje0GHTI1Kr3Gyo0A5Ic-5" value="Запросить данные" style="rounded=0;whiteSpace=wrap;html=1;" vertex="1" parent="yje0GHTI1Kr3Gyo0A5Ic-15">
          <mxGeometry width="120" height="60" as="geometry" />
        </mxCell>
        <mxCell id="yje0GHTI1Kr3Gyo0A5Ic-6" value="" style="endArrow=none;html=1;rounded=0;entryX=1;entryY=0.25;entryDx=0;entryDy=0;exitX=0;exitY=0.25;exitDx=0;exitDy=0;" edge="1" parent="yje0GHTI1Kr3Gyo0A5Ic-15" source="yje0GHTI1Kr3Gyo0A5Ic-5" target="yje0GHTI1Kr3Gyo0A5Ic-5">
          <mxGeometry width="50" height="50" relative="1" as="geometry">
            <mxPoint x="-100" y="30" as="sourcePoint" />
            <mxPoint x="-20" y="30" as="targetPoint" />
          </mxGeometry>
        </mxCell>
        <mxCell id="yje0GHTI1Kr3Gyo0A5Ic-16" value="" style="group;rotation=90;" vertex="1" connectable="0" parent="1">
          <mxGeometry x="640" y="170" width="120" height="60" as="geometry" />
        </mxCell>
        <mxCell id="yje0GHTI1Kr3Gyo0A5Ic-17" value="Запросить данные" style="rounded=0;whiteSpace=wrap;html=1;" vertex="1" parent="yje0GHTI1Kr3Gyo0A5Ic-16">
          <mxGeometry width="120" height="60" as="geometry" />
        </mxCell>
        <mxCell id="yje0GHTI1Kr3Gyo0A5Ic-18" value="" style="endArrow=none;html=1;rounded=0;entryX=1;entryY=0.25;entryDx=0;entryDy=0;exitX=0;exitY=0.25;exitDx=0;exitDy=0;" edge="1" parent="yje0GHTI1Kr3Gyo0A5Ic-16" source="yje0GHTI1Kr3Gyo0A5Ic-17" target="yje0GHTI1Kr3Gyo0A5Ic-17">
          <mxGeometry width="50" height="50" relative="1" as="geometry">
            <mxPoint x="-100" y="30" as="sourcePoint" />
            <mxPoint x="-20" y="30" as="targetPoint" />
          </mxGeometry>
        </mxCell>
        <mxCell id="yje0GHTI1Kr3Gyo0A5Ic-27" style="edgeStyle=orthogonalEdgeStyle;rounded=0;orthogonalLoop=1;jettySize=auto;html=1;" edge="1" parent="1" source="yje0GHTI1Kr3Gyo0A5Ic-20" target="yje0GHTI1Kr3Gyo0A5Ic-25">
          <mxGeometry relative="1" as="geometry" />
        </mxCell>
        <mxCell id="yje0GHTI1Kr3Gyo0A5Ic-53" value="Мед. данные" style="edgeLabel;html=1;align=center;verticalAlign=middle;resizable=0;points=[];" vertex="1" connectable="0" parent="yje0GHTI1Kr3Gyo0A5Ic-27">
          <mxGeometry x="0.1843" y="-1" relative="1" as="geometry">
            <mxPoint as="offset" />
          </mxGeometry>
        </mxCell>
        <mxCell id="yje0GHTI1Kr3Gyo0A5Ic-48" style="edgeStyle=orthogonalEdgeStyle;rounded=0;orthogonalLoop=1;jettySize=auto;html=1;entryX=1;entryY=0.5;entryDx=0;entryDy=0;" edge="1" parent="1" source="yje0GHTI1Kr3Gyo0A5Ic-20" target="yje0GHTI1Kr3Gyo0A5Ic-46">
          <mxGeometry relative="1" as="geometry">
            <Array as="points">
              <mxPoint x="1140" y="200" />
              <mxPoint x="1140" y="-30" />
            </Array>
          </mxGeometry>
        </mxCell>
        <mxCell id="yje0GHTI1Kr3Gyo0A5Ic-52" value="&lt;span style=&quot;font-size: 9px;&quot;&gt;Медицинские данные&lt;/span&gt;&lt;div&gt;&lt;span style=&quot;font-size: 9px;&quot;&gt;&amp;nbsp;для аналитики&lt;/span&gt;&lt;/div&gt;" style="edgeLabel;html=1;align=center;verticalAlign=middle;resizable=0;points=[];" vertex="1" connectable="0" parent="yje0GHTI1Kr3Gyo0A5Ic-48">
          <mxGeometry x="0.283" relative="1" as="geometry">
            <mxPoint as="offset" />
          </mxGeometry>
        </mxCell>
        <mxCell id="yje0GHTI1Kr3Gyo0A5Ic-20" value="Домен медицины" style="rounded=0;whiteSpace=wrap;html=1;" vertex="1" parent="1">
          <mxGeometry x="920" y="170" width="120" height="60" as="geometry" />
        </mxCell>
        <mxCell id="yje0GHTI1Kr3Gyo0A5Ic-21" style="edgeStyle=orthogonalEdgeStyle;rounded=0;orthogonalLoop=1;jettySize=auto;html=1;" edge="1" parent="1" source="yje0GHTI1Kr3Gyo0A5Ic-17" target="yje0GHTI1Kr3Gyo0A5Ic-20">
          <mxGeometry relative="1" as="geometry" />
        </mxCell>
        <mxCell id="yje0GHTI1Kr3Gyo0A5Ic-22" value="Идентификатор" style="edgeLabel;html=1;align=center;verticalAlign=middle;resizable=0;points=[];" vertex="1" connectable="0" parent="yje0GHTI1Kr3Gyo0A5Ic-21">
          <mxGeometry x="-0.1569" relative="1" as="geometry">
            <mxPoint x="12" as="offset" />
          </mxGeometry>
        </mxCell>
        <mxCell id="yje0GHTI1Kr3Gyo0A5Ic-24" value="" style="group" vertex="1" connectable="0" parent="1">
          <mxGeometry x="920" y="50" width="120" height="60" as="geometry" />
        </mxCell>
        <mxCell id="yje0GHTI1Kr3Gyo0A5Ic-25" value="Сформировать мед. данные" style="rounded=0;whiteSpace=wrap;html=1;" vertex="1" parent="yje0GHTI1Kr3Gyo0A5Ic-24">
          <mxGeometry width="120" height="60" as="geometry" />
        </mxCell>
        <mxCell id="yje0GHTI1Kr3Gyo0A5Ic-26" value="" style="endArrow=none;html=1;rounded=0;entryX=1;entryY=0.25;entryDx=0;entryDy=0;exitX=0;exitY=0.25;exitDx=0;exitDy=0;" edge="1" parent="yje0GHTI1Kr3Gyo0A5Ic-24" source="yje0GHTI1Kr3Gyo0A5Ic-25" target="yje0GHTI1Kr3Gyo0A5Ic-25">
          <mxGeometry width="50" height="50" relative="1" as="geometry">
            <mxPoint x="-100" y="30" as="sourcePoint" />
            <mxPoint x="-20" y="30" as="targetPoint" />
          </mxGeometry>
        </mxCell>
        <mxCell id="yje0GHTI1Kr3Gyo0A5Ic-28" style="edgeStyle=orthogonalEdgeStyle;rounded=0;orthogonalLoop=1;jettySize=auto;html=1;" edge="1" parent="1" source="yje0GHTI1Kr3Gyo0A5Ic-25" target="yje0GHTI1Kr3Gyo0A5Ic-9">
          <mxGeometry relative="1" as="geometry" />
        </mxCell>
        <mxCell id="yje0GHTI1Kr3Gyo0A5Ic-31" value="Мед. данные" style="edgeLabel;html=1;align=center;verticalAlign=middle;resizable=0;points=[];" vertex="1" connectable="0" parent="yje0GHTI1Kr3Gyo0A5Ic-28">
          <mxGeometry x="0.2243" relative="1" as="geometry">
            <mxPoint x="18" as="offset" />
          </mxGeometry>
        </mxCell>
        <mxCell id="yje0GHTI1Kr3Gyo0A5Ic-35" style="edgeStyle=orthogonalEdgeStyle;rounded=0;orthogonalLoop=1;jettySize=auto;html=1;" edge="1" parent="1">
          <mxGeometry relative="1" as="geometry">
            <mxPoint x="340" y="100" as="sourcePoint" />
            <mxPoint x="140" y="100" as="targetPoint" />
          </mxGeometry>
        </mxCell>
        <mxCell id="yje0GHTI1Kr3Gyo0A5Ic-37" value="Мед. данные и перс. данные" style="edgeLabel;html=1;align=center;verticalAlign=middle;resizable=0;points=[];" vertex="1" connectable="0" parent="yje0GHTI1Kr3Gyo0A5Ic-35">
          <mxGeometry x="0.1559" y="-1" relative="1" as="geometry">
            <mxPoint x="16" as="offset" />
          </mxGeometry>
        </mxCell>
        <mxCell id="yje0GHTI1Kr3Gyo0A5Ic-60" style="edgeStyle=orthogonalEdgeStyle;rounded=0;orthogonalLoop=1;jettySize=auto;html=1;entryX=0.5;entryY=1;entryDx=0;entryDy=0;" edge="1" parent="1">
          <mxGeometry relative="1" as="geometry">
            <mxPoint x="720" y="-210" as="sourcePoint" />
            <mxPoint x="720" y="-280" as="targetPoint" />
          </mxGeometry>
        </mxCell>
        <mxCell id="yje0GHTI1Kr3Gyo0A5Ic-61" value="&lt;font style=&quot;font-size: 9px;&quot;&gt;Аналитические&amp;nbsp;&lt;/font&gt;&lt;div&gt;&lt;font style=&quot;font-size: 9px;&quot;&gt;данные&lt;/font&gt;&lt;/div&gt;" style="edgeLabel;html=1;align=center;verticalAlign=middle;resizable=0;points=[];" vertex="1" connectable="0" parent="yje0GHTI1Kr3Gyo0A5Ic-60">
          <mxGeometry x="0.0487" y="3" relative="1" as="geometry">
            <mxPoint as="offset" />
          </mxGeometry>
        </mxCell>
        <mxCell id="yje0GHTI1Kr3Gyo0A5Ic-103" style="edgeStyle=orthogonalEdgeStyle;rounded=0;orthogonalLoop=1;jettySize=auto;html=1;" edge="1" parent="1" source="yje0GHTI1Kr3Gyo0A5Ic-38" target="yje0GHTI1Kr3Gyo0A5Ic-101">
          <mxGeometry relative="1" as="geometry">
            <Array as="points">
              <mxPoint x="790" y="-200" />
              <mxPoint x="790" y="-200" />
            </Array>
          </mxGeometry>
        </mxCell>
        <mxCell id="yje0GHTI1Kr3Gyo0A5Ic-105" value="&lt;font style=&quot;font-size: 6px;&quot;&gt;Аналитические данные&lt;/font&gt;" style="edgeLabel;html=1;align=center;verticalAlign=middle;resizable=0;points=[];" vertex="1" connectable="0" parent="yje0GHTI1Kr3Gyo0A5Ic-103">
          <mxGeometry x="-0.3143" relative="1" as="geometry">
            <mxPoint x="5" as="offset" />
          </mxGeometry>
        </mxCell>
        <mxCell id="yje0GHTI1Kr3Gyo0A5Ic-38" value="Шина данных" style="rounded=0;whiteSpace=wrap;html=1;" vertex="1" parent="1">
          <mxGeometry x="640" y="-210" width="120" height="60" as="geometry" />
        </mxCell>
        <mxCell id="yje0GHTI1Kr3Gyo0A5Ic-39" value="" style="group" vertex="1" connectable="0" parent="1">
          <mxGeometry x="640" y="-80" width="120" height="60" as="geometry" />
        </mxCell>
        <mxCell id="yje0GHTI1Kr3Gyo0A5Ic-40" value="&lt;font style=&quot;font-size: 8px;&quot;&gt;Отправить данные&lt;/font&gt;" style="rounded=0;whiteSpace=wrap;html=1;" vertex="1" parent="yje0GHTI1Kr3Gyo0A5Ic-39">
          <mxGeometry width="120" height="60" as="geometry" />
        </mxCell>
        <mxCell id="yje0GHTI1Kr3Gyo0A5Ic-41" value="" style="endArrow=none;html=1;rounded=0;entryX=1;entryY=0.25;entryDx=0;entryDy=0;exitX=0;exitY=0.25;exitDx=0;exitDy=0;" edge="1" parent="yje0GHTI1Kr3Gyo0A5Ic-39" source="yje0GHTI1Kr3Gyo0A5Ic-40" target="yje0GHTI1Kr3Gyo0A5Ic-40">
          <mxGeometry width="50" height="50" relative="1" as="geometry">
            <mxPoint x="-100" y="30" as="sourcePoint" />
            <mxPoint x="-20" y="30" as="targetPoint" />
          </mxGeometry>
        </mxCell>
        <mxCell id="yje0GHTI1Kr3Gyo0A5Ic-43" style="edgeStyle=orthogonalEdgeStyle;rounded=0;orthogonalLoop=1;jettySize=auto;html=1;" edge="1" parent="1" source="yje0GHTI1Kr3Gyo0A5Ic-40" target="yje0GHTI1Kr3Gyo0A5Ic-38">
          <mxGeometry relative="1" as="geometry" />
        </mxCell>
        <mxCell id="yje0GHTI1Kr3Gyo0A5Ic-44" value="&lt;font style=&quot;font-size: 9px;&quot;&gt;Данные клиентов&lt;/font&gt;&lt;div&gt;&lt;font style=&quot;font-size: 9px;&quot;&gt;&amp;nbsp;для аналитики&lt;/font&gt;&lt;/div&gt;" style="edgeLabel;html=1;align=center;verticalAlign=middle;resizable=0;points=[];" vertex="1" connectable="0" parent="yje0GHTI1Kr3Gyo0A5Ic-43">
          <mxGeometry x="0.2265" relative="1" as="geometry">
            <mxPoint as="offset" />
          </mxGeometry>
        </mxCell>
        <mxCell id="yje0GHTI1Kr3Gyo0A5Ic-45" value="" style="group" vertex="1" connectable="0" parent="1">
          <mxGeometry x="970" y="-60" width="120" height="60" as="geometry" />
        </mxCell>
        <mxCell id="yje0GHTI1Kr3Gyo0A5Ic-46" value="&lt;font style=&quot;font-size: 8px;&quot;&gt;Отправить данные&lt;/font&gt;" style="rounded=0;whiteSpace=wrap;html=1;" vertex="1" parent="yje0GHTI1Kr3Gyo0A5Ic-45">
          <mxGeometry width="120" height="60" as="geometry" />
        </mxCell>
        <mxCell id="yje0GHTI1Kr3Gyo0A5Ic-47" value="" style="endArrow=none;html=1;rounded=0;entryX=1;entryY=0.25;entryDx=0;entryDy=0;exitX=0;exitY=0.25;exitDx=0;exitDy=0;" edge="1" parent="yje0GHTI1Kr3Gyo0A5Ic-45" source="yje0GHTI1Kr3Gyo0A5Ic-46" target="yje0GHTI1Kr3Gyo0A5Ic-46">
          <mxGeometry width="50" height="50" relative="1" as="geometry">
            <mxPoint x="-100" y="30" as="sourcePoint" />
            <mxPoint x="-20" y="30" as="targetPoint" />
          </mxGeometry>
        </mxCell>
        <mxCell id="yje0GHTI1Kr3Gyo0A5Ic-49" style="edgeStyle=orthogonalEdgeStyle;rounded=0;orthogonalLoop=1;jettySize=auto;html=1;entryX=1;entryY=0.5;entryDx=0;entryDy=0;" edge="1" parent="1" source="yje0GHTI1Kr3Gyo0A5Ic-46" target="yje0GHTI1Kr3Gyo0A5Ic-38">
          <mxGeometry relative="1" as="geometry">
            <Array as="points">
              <mxPoint x="865" y="-30" />
              <mxPoint x="865" y="-180" />
            </Array>
          </mxGeometry>
        </mxCell>
        <mxCell id="yje0GHTI1Kr3Gyo0A5Ic-50" value="&lt;span style=&quot;font-size: 9px;&quot;&gt;Медицинские данные&lt;/span&gt;&lt;div&gt;&lt;span style=&quot;font-size: 9px;&quot;&gt;&amp;nbsp;для аналитики&lt;/span&gt;&lt;/div&gt;" style="edgeLabel;html=1;align=center;verticalAlign=middle;resizable=0;points=[];" vertex="1" connectable="0" parent="yje0GHTI1Kr3Gyo0A5Ic-49">
          <mxGeometry x="0.1306" relative="1" as="geometry">
            <mxPoint as="offset" />
          </mxGeometry>
        </mxCell>
        <mxCell id="yje0GHTI1Kr3Gyo0A5Ic-58" style="edgeStyle=orthogonalEdgeStyle;rounded=0;orthogonalLoop=1;jettySize=auto;html=1;" edge="1" parent="1">
          <mxGeometry relative="1" as="geometry">
            <mxPoint x="670" y="-400" as="sourcePoint" />
            <mxPoint x="670" y="-340" as="targetPoint" />
          </mxGeometry>
        </mxCell>
        <mxCell id="yje0GHTI1Kr3Gyo0A5Ic-72" style="edgeStyle=orthogonalEdgeStyle;rounded=0;orthogonalLoop=1;jettySize=auto;html=1;entryX=0.75;entryY=1;entryDx=0;entryDy=0;" edge="1" parent="1" target="yje0GHTI1Kr3Gyo0A5Ic-64">
          <mxGeometry relative="1" as="geometry">
            <mxPoint x="730" y="-460" as="sourcePoint" />
            <mxPoint x="730" y="-500" as="targetPoint" />
          </mxGeometry>
        </mxCell>
        <mxCell id="yje0GHTI1Kr3Gyo0A5Ic-75" value="&lt;font style=&quot;font-size: 8px;&quot;&gt;Срез данных&amp;nbsp;&lt;/font&gt;&lt;div&gt;&lt;font style=&quot;font-size: 8px;&quot;&gt;по доменам&lt;/font&gt;&lt;/div&gt;" style="edgeLabel;html=1;align=center;verticalAlign=middle;resizable=0;points=[];" vertex="1" connectable="0" parent="yje0GHTI1Kr3Gyo0A5Ic-72">
          <mxGeometry x="0.2018" relative="1" as="geometry">
            <mxPoint as="offset" />
          </mxGeometry>
        </mxCell>
        <mxCell id="yje0GHTI1Kr3Gyo0A5Ic-83" value="&lt;font style=&quot;font-size: 9px;&quot;&gt;Аналитические&amp;nbsp;&lt;/font&gt;&lt;div&gt;&lt;font style=&quot;font-size: 9px;&quot;&gt;данные&lt;/font&gt;&lt;/div&gt;" style="edgeStyle=orthogonalEdgeStyle;rounded=0;orthogonalLoop=1;jettySize=auto;html=1;" edge="1" parent="1" source="yje0GHTI1Kr3Gyo0A5Ic-54" target="yje0GHTI1Kr3Gyo0A5Ic-81">
          <mxGeometry relative="1" as="geometry" />
        </mxCell>
        <mxCell id="yje0GHTI1Kr3Gyo0A5Ic-87" value="&lt;span style=&quot;font-size: 8px;&quot;&gt;Параметры отчета&lt;/span&gt;" style="edgeStyle=orthogonalEdgeStyle;rounded=0;orthogonalLoop=1;jettySize=auto;html=1;" edge="1" parent="1" source="yje0GHTI1Kr3Gyo0A5Ic-54" target="yje0GHTI1Kr3Gyo0A5Ic-85">
          <mxGeometry relative="1" as="geometry" />
        </mxCell>
        <mxCell id="yje0GHTI1Kr3Gyo0A5Ic-54" value="Витрина данных" style="rounded=0;whiteSpace=wrap;html=1;" vertex="1" parent="1">
          <mxGeometry x="640" y="-460" width="120" height="60" as="geometry" />
        </mxCell>
        <mxCell id="yje0GHTI1Kr3Gyo0A5Ic-55" value="" style="group" vertex="1" connectable="0" parent="1">
          <mxGeometry x="640" y="-340" width="120" height="60" as="geometry" />
        </mxCell>
        <mxCell id="yje0GHTI1Kr3Gyo0A5Ic-56" value="&lt;span style=&quot;font-size: 8px;&quot;&gt;Получить аналитические данные&lt;/span&gt;" style="rounded=0;whiteSpace=wrap;html=1;" vertex="1" parent="yje0GHTI1Kr3Gyo0A5Ic-55">
          <mxGeometry width="120" height="60" as="geometry" />
        </mxCell>
        <mxCell id="yje0GHTI1Kr3Gyo0A5Ic-57" value="" style="endArrow=none;html=1;rounded=0;entryX=1;entryY=0.25;entryDx=0;entryDy=0;exitX=0;exitY=0.25;exitDx=0;exitDy=0;" edge="1" parent="yje0GHTI1Kr3Gyo0A5Ic-55" source="yje0GHTI1Kr3Gyo0A5Ic-56" target="yje0GHTI1Kr3Gyo0A5Ic-56">
          <mxGeometry width="50" height="50" relative="1" as="geometry">
            <mxPoint x="-100" y="30" as="sourcePoint" />
            <mxPoint x="-20" y="30" as="targetPoint" />
          </mxGeometry>
        </mxCell>
        <mxCell id="yje0GHTI1Kr3Gyo0A5Ic-59" style="edgeStyle=orthogonalEdgeStyle;rounded=0;orthogonalLoop=1;jettySize=auto;html=1;" edge="1" parent="1" source="yje0GHTI1Kr3Gyo0A5Ic-56" target="yje0GHTI1Kr3Gyo0A5Ic-38">
          <mxGeometry relative="1" as="geometry">
            <Array as="points">
              <mxPoint x="680" y="-250" />
              <mxPoint x="680" y="-250" />
            </Array>
          </mxGeometry>
        </mxCell>
        <mxCell id="yje0GHTI1Kr3Gyo0A5Ic-67" style="edgeStyle=orthogonalEdgeStyle;rounded=0;orthogonalLoop=1;jettySize=auto;html=1;" edge="1" parent="1" source="yje0GHTI1Kr3Gyo0A5Ic-62" target="yje0GHTI1Kr3Gyo0A5Ic-64">
          <mxGeometry relative="1" as="geometry">
            <Array as="points">
              <mxPoint x="690" y="-630" />
              <mxPoint x="690" y="-630" />
            </Array>
          </mxGeometry>
        </mxCell>
        <mxCell id="yje0GHTI1Kr3Gyo0A5Ic-62" value="BI-аналитик" style="shape=umlActor;verticalLabelPosition=bottom;verticalAlign=top;html=1;outlineConnect=0;" vertex="1" parent="1">
          <mxGeometry x="685" y="-740" width="30" height="60" as="geometry" />
        </mxCell>
        <mxCell id="yje0GHTI1Kr3Gyo0A5Ic-63" value="" style="group" vertex="1" connectable="0" parent="1">
          <mxGeometry x="640" y="-580" width="120" height="60" as="geometry" />
        </mxCell>
        <mxCell id="yje0GHTI1Kr3Gyo0A5Ic-64" value="&lt;span style=&quot;font-size: 8px;&quot;&gt;Сформировать отчет&lt;/span&gt;" style="rounded=0;whiteSpace=wrap;html=1;" vertex="1" parent="yje0GHTI1Kr3Gyo0A5Ic-63">
          <mxGeometry width="120" height="60" as="geometry" />
        </mxCell>
        <mxCell id="yje0GHTI1Kr3Gyo0A5Ic-65" value="" style="endArrow=none;html=1;rounded=0;entryX=1;entryY=0.25;entryDx=0;entryDy=0;exitX=0;exitY=0.25;exitDx=0;exitDy=0;" edge="1" parent="yje0GHTI1Kr3Gyo0A5Ic-63" source="yje0GHTI1Kr3Gyo0A5Ic-64" target="yje0GHTI1Kr3Gyo0A5Ic-64">
          <mxGeometry width="50" height="50" relative="1" as="geometry">
            <mxPoint x="-100" y="30" as="sourcePoint" />
            <mxPoint x="-20" y="30" as="targetPoint" />
          </mxGeometry>
        </mxCell>
        <mxCell id="yje0GHTI1Kr3Gyo0A5Ic-69" style="edgeStyle=orthogonalEdgeStyle;rounded=0;orthogonalLoop=1;jettySize=auto;html=1;entryX=0.197;entryY=0.03;entryDx=0;entryDy=0;entryPerimeter=0;" edge="1" parent="1" source="yje0GHTI1Kr3Gyo0A5Ic-64" target="yje0GHTI1Kr3Gyo0A5Ic-54">
          <mxGeometry relative="1" as="geometry">
            <Array as="points">
              <mxPoint x="664" y="-480" />
            </Array>
          </mxGeometry>
        </mxCell>
        <mxCell id="yje0GHTI1Kr3Gyo0A5Ic-78" value="&lt;font style=&quot;font-size: 8px;&quot;&gt;Параметры отчета&lt;/font&gt;" style="edgeLabel;html=1;align=center;verticalAlign=middle;resizable=0;points=[];" vertex="1" connectable="0" parent="yje0GHTI1Kr3Gyo0A5Ic-69">
          <mxGeometry x="-0.3459" relative="1" as="geometry">
            <mxPoint as="offset" />
          </mxGeometry>
        </mxCell>
        <mxCell id="yje0GHTI1Kr3Gyo0A5Ic-73" style="edgeStyle=orthogonalEdgeStyle;rounded=0;orthogonalLoop=1;jettySize=auto;html=1;exitX=0.624;exitY=0.029;exitDx=0;exitDy=0;exitPerimeter=0;" edge="1" parent="1" source="yje0GHTI1Kr3Gyo0A5Ic-64">
          <mxGeometry relative="1" as="geometry">
            <mxPoint x="710" y="-600" as="sourcePoint" />
            <mxPoint x="715" y="-680" as="targetPoint" />
          </mxGeometry>
        </mxCell>
        <mxCell id="yje0GHTI1Kr3Gyo0A5Ic-74" value="&lt;font style=&quot;font-size: 8px;&quot;&gt;Срез данных&amp;nbsp;&lt;/font&gt;&lt;div&gt;&lt;font style=&quot;font-size: 8px;&quot;&gt;по доменам&lt;/font&gt;&lt;/div&gt;" style="edgeLabel;html=1;align=center;verticalAlign=middle;resizable=0;points=[];" vertex="1" connectable="0" parent="yje0GHTI1Kr3Gyo0A5Ic-73">
          <mxGeometry x="-0.1903" relative="1" as="geometry">
            <mxPoint x="25" y="-11" as="offset" />
          </mxGeometry>
        </mxCell>
        <mxCell id="yje0GHTI1Kr3Gyo0A5Ic-76" style="edgeStyle=orthogonalEdgeStyle;rounded=0;orthogonalLoop=1;jettySize=auto;html=1;" edge="1" parent="1">
          <mxGeometry relative="1" as="geometry">
            <mxPoint x="720" y="-340" as="sourcePoint" />
            <mxPoint x="720" y="-400" as="targetPoint" />
          </mxGeometry>
        </mxCell>
        <mxCell id="yje0GHTI1Kr3Gyo0A5Ic-77" value="&lt;font style=&quot;font-size: 9px;&quot;&gt;Аналитические&amp;nbsp;&lt;/font&gt;&lt;div&gt;&lt;font style=&quot;font-size: 9px;&quot;&gt;данные&lt;/font&gt;&lt;/div&gt;" style="edgeLabel;html=1;align=center;verticalAlign=middle;resizable=0;points=[];" vertex="1" connectable="0" parent="yje0GHTI1Kr3Gyo0A5Ic-76">
          <mxGeometry x="0.1684" relative="1" as="geometry">
            <mxPoint as="offset" />
          </mxGeometry>
        </mxCell>
        <mxCell id="yje0GHTI1Kr3Gyo0A5Ic-80" value="" style="group" vertex="1" connectable="0" parent="1">
          <mxGeometry x="850" y="-460" width="120" height="60" as="geometry" />
        </mxCell>
        <mxCell id="yje0GHTI1Kr3Gyo0A5Ic-81" value="&lt;span style=&quot;font-size: 8px;&quot;&gt;Сохранить данные для аналитики&lt;/span&gt;" style="rounded=0;whiteSpace=wrap;html=1;" vertex="1" parent="yje0GHTI1Kr3Gyo0A5Ic-80">
          <mxGeometry width="120" height="60" as="geometry" />
        </mxCell>
        <mxCell id="yje0GHTI1Kr3Gyo0A5Ic-82" value="" style="endArrow=none;html=1;rounded=0;entryX=1;entryY=0.25;entryDx=0;entryDy=0;exitX=0;exitY=0.25;exitDx=0;exitDy=0;" edge="1" parent="yje0GHTI1Kr3Gyo0A5Ic-80" source="yje0GHTI1Kr3Gyo0A5Ic-81" target="yje0GHTI1Kr3Gyo0A5Ic-81">
          <mxGeometry width="50" height="50" relative="1" as="geometry">
            <mxPoint x="-100" y="30" as="sourcePoint" />
            <mxPoint x="-20" y="30" as="targetPoint" />
          </mxGeometry>
        </mxCell>
        <mxCell id="yje0GHTI1Kr3Gyo0A5Ic-84" value="" style="group" vertex="1" connectable="0" parent="1">
          <mxGeometry x="420" y="-460" width="120" height="60" as="geometry" />
        </mxCell>
        <mxCell id="yje0GHTI1Kr3Gyo0A5Ic-85" value="&lt;span style=&quot;font-size: 8px;&quot;&gt;Сформировать отчет&lt;/span&gt;" style="rounded=0;whiteSpace=wrap;html=1;" vertex="1" parent="yje0GHTI1Kr3Gyo0A5Ic-84">
          <mxGeometry width="120" height="60" as="geometry" />
        </mxCell>
        <mxCell id="yje0GHTI1Kr3Gyo0A5Ic-86" value="" style="endArrow=none;html=1;rounded=0;entryX=1;entryY=0.25;entryDx=0;entryDy=0;exitX=0;exitY=0.25;exitDx=0;exitDy=0;" edge="1" parent="yje0GHTI1Kr3Gyo0A5Ic-84" source="yje0GHTI1Kr3Gyo0A5Ic-85" target="yje0GHTI1Kr3Gyo0A5Ic-85">
          <mxGeometry width="50" height="50" relative="1" as="geometry">
            <mxPoint x="-100" y="30" as="sourcePoint" />
            <mxPoint x="-20" y="30" as="targetPoint" />
          </mxGeometry>
        </mxCell>
        <mxCell id="yje0GHTI1Kr3Gyo0A5Ic-92" style="edgeStyle=orthogonalEdgeStyle;rounded=0;orthogonalLoop=1;jettySize=auto;html=1;" edge="1" parent="1" source="yje0GHTI1Kr3Gyo0A5Ic-88" target="yje0GHTI1Kr3Gyo0A5Ic-90">
          <mxGeometry relative="1" as="geometry" />
        </mxCell>
        <mxCell id="yje0GHTI1Kr3Gyo0A5Ic-94" value="&lt;font style=&quot;font-size: 8px;&quot;&gt;Данные&lt;/font&gt;&lt;div&gt;&lt;font style=&quot;font-size: 8px;&quot;&gt;&amp;nbsp;legacy системы&lt;/font&gt;&lt;/div&gt;" style="edgeLabel;html=1;align=center;verticalAlign=middle;resizable=0;points=[];" vertex="1" connectable="0" parent="yje0GHTI1Kr3Gyo0A5Ic-92">
          <mxGeometry x="-0.2353" y="1" relative="1" as="geometry">
            <mxPoint as="offset" />
          </mxGeometry>
        </mxCell>
        <mxCell id="yje0GHTI1Kr3Gyo0A5Ic-88" value="DWH (legacy)" style="rounded=0;whiteSpace=wrap;html=1;" vertex="1" parent="1">
          <mxGeometry x="170" y="-210" width="120" height="60" as="geometry" />
        </mxCell>
        <mxCell id="yje0GHTI1Kr3Gyo0A5Ic-89" value="" style="group" vertex="1" connectable="0" parent="1">
          <mxGeometry x="400" y="-210" width="120" height="60" as="geometry" />
        </mxCell>
        <mxCell id="yje0GHTI1Kr3Gyo0A5Ic-90" value="&lt;font style=&quot;font-size: 8px;&quot;&gt;Отправить данные&lt;/font&gt;" style="rounded=0;whiteSpace=wrap;html=1;" vertex="1" parent="yje0GHTI1Kr3Gyo0A5Ic-89">
          <mxGeometry width="120" height="60" as="geometry" />
        </mxCell>
        <mxCell id="yje0GHTI1Kr3Gyo0A5Ic-91" value="" style="endArrow=none;html=1;rounded=0;entryX=1;entryY=0.25;entryDx=0;entryDy=0;exitX=0;exitY=0.25;exitDx=0;exitDy=0;" edge="1" parent="yje0GHTI1Kr3Gyo0A5Ic-89" source="yje0GHTI1Kr3Gyo0A5Ic-90" target="yje0GHTI1Kr3Gyo0A5Ic-90">
          <mxGeometry width="50" height="50" relative="1" as="geometry">
            <mxPoint x="-100" y="30" as="sourcePoint" />
            <mxPoint x="-20" y="30" as="targetPoint" />
          </mxGeometry>
        </mxCell>
        <mxCell id="yje0GHTI1Kr3Gyo0A5Ic-93" style="edgeStyle=orthogonalEdgeStyle;rounded=0;orthogonalLoop=1;jettySize=auto;html=1;entryX=0;entryY=0.5;entryDx=0;entryDy=0;" edge="1" parent="1" source="yje0GHTI1Kr3Gyo0A5Ic-90" target="yje0GHTI1Kr3Gyo0A5Ic-38">
          <mxGeometry relative="1" as="geometry" />
        </mxCell>
        <mxCell id="yje0GHTI1Kr3Gyo0A5Ic-95" value="&lt;font style=&quot;font-size: 8px;&quot;&gt;Данные&lt;/font&gt;&lt;div&gt;&lt;font style=&quot;font-size: 8px;&quot;&gt;&amp;nbsp;legacy системы&lt;/font&gt;&lt;/div&gt;" style="edgeLabel;html=1;align=center;verticalAlign=middle;resizable=0;points=[];" vertex="1" connectable="0" parent="yje0GHTI1Kr3Gyo0A5Ic-93">
          <mxGeometry x="0.0049" y="1" relative="1" as="geometry">
            <mxPoint as="offset" />
          </mxGeometry>
        </mxCell>
        <mxCell id="yje0GHTI1Kr3Gyo0A5Ic-120" style="edgeStyle=orthogonalEdgeStyle;rounded=0;orthogonalLoop=1;jettySize=auto;html=1;entryX=1;entryY=0.5;entryDx=0;entryDy=0;" edge="1" parent="1" source="yje0GHTI1Kr3Gyo0A5Ic-96" target="yje0GHTI1Kr3Gyo0A5Ic-118">
          <mxGeometry relative="1" as="geometry" />
        </mxCell>
        <mxCell id="yje0GHTI1Kr3Gyo0A5Ic-124" value="&lt;font style=&quot;font-size: 7px;&quot;&gt;Входные данные&amp;nbsp;&lt;/font&gt;&lt;div&gt;&lt;font style=&quot;font-size: 7px;&quot;&gt;запроса&lt;/font&gt;&lt;/div&gt;" style="edgeLabel;html=1;align=center;verticalAlign=middle;resizable=0;points=[];" vertex="1" connectable="0" parent="yje0GHTI1Kr3Gyo0A5Ic-120">
          <mxGeometry x="0.2537" y="1" relative="1" as="geometry">
            <mxPoint x="25" y="-1" as="offset" />
          </mxGeometry>
        </mxCell>
        <mxCell id="yje0GHTI1Kr3Gyo0A5Ic-96" value="BI-аналитик" style="shape=umlActor;verticalLabelPosition=bottom;verticalAlign=top;html=1;outlineConnect=0;" vertex="1" parent="1">
          <mxGeometry x="1560" y="-230" width="30" height="60" as="geometry" />
        </mxCell>
        <mxCell id="yje0GHTI1Kr3Gyo0A5Ic-99" style="edgeStyle=orthogonalEdgeStyle;rounded=0;orthogonalLoop=1;jettySize=auto;html=1;" edge="1" parent="1" source="yje0GHTI1Kr3Gyo0A5Ic-98" target="yje0GHTI1Kr3Gyo0A5Ic-38">
          <mxGeometry relative="1" as="geometry">
            <Array as="points">
              <mxPoint x="1040" y="-210" />
              <mxPoint x="1040" y="-210" />
            </Array>
          </mxGeometry>
        </mxCell>
        <mxCell id="yje0GHTI1Kr3Gyo0A5Ic-110" style="edgeStyle=orthogonalEdgeStyle;rounded=0;orthogonalLoop=1;jettySize=auto;html=1;" edge="1" parent="1" source="yje0GHTI1Kr3Gyo0A5Ic-98" target="yje0GHTI1Kr3Gyo0A5Ic-108">
          <mxGeometry relative="1" as="geometry" />
        </mxCell>
        <mxCell id="yje0GHTI1Kr3Gyo0A5Ic-111" value="&lt;font style=&quot;font-size: 7px;&quot;&gt;Данные для машинного обучения&lt;/font&gt;" style="edgeLabel;html=1;align=center;verticalAlign=middle;resizable=0;points=[];" vertex="1" connectable="0" parent="yje0GHTI1Kr3Gyo0A5Ic-110">
          <mxGeometry x="-0.0571" relative="1" as="geometry">
            <mxPoint as="offset" />
          </mxGeometry>
        </mxCell>
        <mxCell id="yje0GHTI1Kr3Gyo0A5Ic-115" style="edgeStyle=orthogonalEdgeStyle;rounded=0;orthogonalLoop=1;jettySize=auto;html=1;" edge="1" parent="1" source="yje0GHTI1Kr3Gyo0A5Ic-98" target="yje0GHTI1Kr3Gyo0A5Ic-113">
          <mxGeometry relative="1" as="geometry" />
        </mxCell>
        <mxCell id="yje0GHTI1Kr3Gyo0A5Ic-116" value="&lt;span style=&quot;font-size: 7px;&quot;&gt;Данные машинного обучения&lt;/span&gt;" style="edgeLabel;html=1;align=center;verticalAlign=middle;resizable=0;points=[];" vertex="1" connectable="0" parent="yje0GHTI1Kr3Gyo0A5Ic-115">
          <mxGeometry x="-0.2786" relative="1" as="geometry">
            <mxPoint as="offset" />
          </mxGeometry>
        </mxCell>
        <mxCell id="yje0GHTI1Kr3Gyo0A5Ic-98" value="Домен ML" style="rounded=0;whiteSpace=wrap;html=1;" vertex="1" parent="1">
          <mxGeometry x="1120" y="-230" width="120" height="60" as="geometry" />
        </mxCell>
        <mxCell id="yje0GHTI1Kr3Gyo0A5Ic-100" value="" style="group" vertex="1" connectable="0" parent="1">
          <mxGeometry x="890" y="-230" width="120" height="60" as="geometry" />
        </mxCell>
        <mxCell id="yje0GHTI1Kr3Gyo0A5Ic-101" value="&lt;span style=&quot;font-size: 8px;&quot;&gt;Получить аналитические данные&lt;/span&gt;" style="rounded=0;whiteSpace=wrap;html=1;" vertex="1" parent="yje0GHTI1Kr3Gyo0A5Ic-100">
          <mxGeometry width="120" height="60" as="geometry" />
        </mxCell>
        <mxCell id="yje0GHTI1Kr3Gyo0A5Ic-102" value="" style="endArrow=none;html=1;rounded=0;entryX=1;entryY=0.25;entryDx=0;entryDy=0;exitX=0;exitY=0.25;exitDx=0;exitDy=0;" edge="1" parent="yje0GHTI1Kr3Gyo0A5Ic-100" source="yje0GHTI1Kr3Gyo0A5Ic-101" target="yje0GHTI1Kr3Gyo0A5Ic-101">
          <mxGeometry width="50" height="50" relative="1" as="geometry">
            <mxPoint x="-100" y="30" as="sourcePoint" />
            <mxPoint x="-20" y="30" as="targetPoint" />
          </mxGeometry>
        </mxCell>
        <mxCell id="yje0GHTI1Kr3Gyo0A5Ic-104" style="edgeStyle=orthogonalEdgeStyle;rounded=0;orthogonalLoop=1;jettySize=auto;html=1;" edge="1" parent="1" source="yje0GHTI1Kr3Gyo0A5Ic-101" target="yje0GHTI1Kr3Gyo0A5Ic-98">
          <mxGeometry relative="1" as="geometry" />
        </mxCell>
        <mxCell id="yje0GHTI1Kr3Gyo0A5Ic-106" value="&lt;span style=&quot;font-size: 6px;&quot;&gt;Аналитические данные&lt;/span&gt;" style="edgeLabel;html=1;align=center;verticalAlign=middle;resizable=0;points=[];" vertex="1" connectable="0" parent="yje0GHTI1Kr3Gyo0A5Ic-104">
          <mxGeometry x="-0.1483" y="-1" relative="1" as="geometry">
            <mxPoint as="offset" />
          </mxGeometry>
        </mxCell>
        <mxCell id="yje0GHTI1Kr3Gyo0A5Ic-107" value="" style="group" vertex="1" connectable="0" parent="1">
          <mxGeometry x="1120" y="-360" width="120" height="60" as="geometry" />
        </mxCell>
        <mxCell id="yje0GHTI1Kr3Gyo0A5Ic-108" value="&lt;span style=&quot;font-size: 8px;&quot;&gt;Обучить модель на полученных данных&lt;/span&gt;" style="rounded=0;whiteSpace=wrap;html=1;" vertex="1" parent="yje0GHTI1Kr3Gyo0A5Ic-107">
          <mxGeometry width="120" height="60" as="geometry" />
        </mxCell>
        <mxCell id="yje0GHTI1Kr3Gyo0A5Ic-109" value="" style="endArrow=none;html=1;rounded=0;entryX=1;entryY=0.25;entryDx=0;entryDy=0;exitX=0;exitY=0.25;exitDx=0;exitDy=0;" edge="1" parent="yje0GHTI1Kr3Gyo0A5Ic-107" source="yje0GHTI1Kr3Gyo0A5Ic-108" target="yje0GHTI1Kr3Gyo0A5Ic-108">
          <mxGeometry width="50" height="50" relative="1" as="geometry">
            <mxPoint x="-100" y="30" as="sourcePoint" />
            <mxPoint x="-20" y="30" as="targetPoint" />
          </mxGeometry>
        </mxCell>
        <mxCell id="yje0GHTI1Kr3Gyo0A5Ic-112" value="" style="group" vertex="1" connectable="0" parent="1">
          <mxGeometry x="1120" y="-120" width="120" height="60" as="geometry" />
        </mxCell>
        <mxCell id="yje0GHTI1Kr3Gyo0A5Ic-113" value="&lt;span style=&quot;font-size: 8px;&quot;&gt;Сохранить результаты обучения модели&lt;/span&gt;" style="rounded=0;whiteSpace=wrap;html=1;" vertex="1" parent="yje0GHTI1Kr3Gyo0A5Ic-112">
          <mxGeometry width="120" height="60" as="geometry" />
        </mxCell>
        <mxCell id="yje0GHTI1Kr3Gyo0A5Ic-114" value="" style="endArrow=none;html=1;rounded=0;entryX=1;entryY=0.25;entryDx=0;entryDy=0;exitX=0;exitY=0.25;exitDx=0;exitDy=0;" edge="1" parent="yje0GHTI1Kr3Gyo0A5Ic-112" source="yje0GHTI1Kr3Gyo0A5Ic-113" target="yje0GHTI1Kr3Gyo0A5Ic-113">
          <mxGeometry width="50" height="50" relative="1" as="geometry">
            <mxPoint x="-100" y="30" as="sourcePoint" />
            <mxPoint x="-20" y="30" as="targetPoint" />
          </mxGeometry>
        </mxCell>
        <mxCell id="yje0GHTI1Kr3Gyo0A5Ic-117" value="" style="group" vertex="1" connectable="0" parent="1">
          <mxGeometry x="1330" y="-230" width="120" height="60" as="geometry" />
        </mxCell>
        <mxCell id="yje0GHTI1Kr3Gyo0A5Ic-118" value="&lt;span style=&quot;font-size: 8px;&quot;&gt;Получить прогнозируемый результат&lt;/span&gt;" style="rounded=0;whiteSpace=wrap;html=1;" vertex="1" parent="yje0GHTI1Kr3Gyo0A5Ic-117">
          <mxGeometry width="120" height="60" as="geometry" />
        </mxCell>
        <mxCell id="yje0GHTI1Kr3Gyo0A5Ic-119" value="" style="endArrow=none;html=1;rounded=0;entryX=1;entryY=0.25;entryDx=0;entryDy=0;exitX=0;exitY=0.25;exitDx=0;exitDy=0;" edge="1" parent="yje0GHTI1Kr3Gyo0A5Ic-117" source="yje0GHTI1Kr3Gyo0A5Ic-118" target="yje0GHTI1Kr3Gyo0A5Ic-118">
          <mxGeometry width="50" height="50" relative="1" as="geometry">
            <mxPoint x="-100" y="30" as="sourcePoint" />
            <mxPoint x="-20" y="30" as="targetPoint" />
          </mxGeometry>
        </mxCell>
        <mxCell id="yje0GHTI1Kr3Gyo0A5Ic-121" value="&lt;font style=&quot;font-size: 7px;&quot;&gt;Входные данные&amp;nbsp;&lt;/font&gt;&lt;div&gt;&lt;font style=&quot;font-size: 7px;&quot;&gt;запроса&lt;/font&gt;&lt;/div&gt;" style="edgeStyle=orthogonalEdgeStyle;rounded=0;orthogonalLoop=1;jettySize=auto;html=1;entryX=1;entryY=0.5;entryDx=0;entryDy=0;" edge="1" parent="1" source="yje0GHTI1Kr3Gyo0A5Ic-118" target="yje0GHTI1Kr3Gyo0A5Ic-98">
          <mxGeometry relative="1" as="geometry" />
        </mxCell>
        <mxCell id="yje0GHTI1Kr3Gyo0A5Ic-125" value="" style="group" vertex="1" connectable="0" parent="1">
          <mxGeometry x="1330" y="-120" width="120" height="60" as="geometry" />
        </mxCell>
        <mxCell id="yje0GHTI1Kr3Gyo0A5Ic-126" value="&lt;span style=&quot;font-size: 8px;&quot;&gt;Рассчитать результат&lt;/span&gt;" style="rounded=0;whiteSpace=wrap;html=1;" vertex="1" parent="yje0GHTI1Kr3Gyo0A5Ic-125">
          <mxGeometry width="120" height="60" as="geometry" />
        </mxCell>
        <mxCell id="yje0GHTI1Kr3Gyo0A5Ic-127" value="" style="endArrow=none;html=1;rounded=0;entryX=1;entryY=0.25;entryDx=0;entryDy=0;exitX=0;exitY=0.25;exitDx=0;exitDy=0;" edge="1" parent="yje0GHTI1Kr3Gyo0A5Ic-125" source="yje0GHTI1Kr3Gyo0A5Ic-126" target="yje0GHTI1Kr3Gyo0A5Ic-126">
          <mxGeometry width="50" height="50" relative="1" as="geometry">
            <mxPoint x="-100" y="30" as="sourcePoint" />
            <mxPoint x="-20" y="30" as="targetPoint" />
          </mxGeometry>
        </mxCell>
        <mxCell id="yje0GHTI1Kr3Gyo0A5Ic-128" style="edgeStyle=orthogonalEdgeStyle;rounded=0;orthogonalLoop=1;jettySize=auto;html=1;entryX=0.008;entryY=0.583;entryDx=0;entryDy=0;entryPerimeter=0;" edge="1" parent="1" source="yje0GHTI1Kr3Gyo0A5Ic-98" target="yje0GHTI1Kr3Gyo0A5Ic-126">
          <mxGeometry relative="1" as="geometry">
            <Array as="points">
              <mxPoint x="1270" y="-180" />
              <mxPoint x="1270" y="-85" />
            </Array>
          </mxGeometry>
        </mxCell>
        <mxCell id="yje0GHTI1Kr3Gyo0A5Ic-131" value="&lt;font style=&quot;font-size: 7px;&quot;&gt;Входные данные&amp;nbsp;&lt;/font&gt;&lt;div&gt;&lt;font style=&quot;font-size: 7px;&quot;&gt;запроса&lt;/font&gt;&lt;/div&gt;" style="edgeLabel;html=1;align=center;verticalAlign=middle;resizable=0;points=[];" vertex="1" connectable="0" parent="yje0GHTI1Kr3Gyo0A5Ic-128">
          <mxGeometry x="-0.2209" y="2" relative="1" as="geometry">
            <mxPoint as="offset" />
          </mxGeometry>
        </mxCell>
        <mxCell id="yje0GHTI1Kr3Gyo0A5Ic-129" style="edgeStyle=orthogonalEdgeStyle;rounded=0;orthogonalLoop=1;jettySize=auto;html=1;" edge="1" parent="1" source="yje0GHTI1Kr3Gyo0A5Ic-126" target="yje0GHTI1Kr3Gyo0A5Ic-96">
          <mxGeometry relative="1" as="geometry" />
        </mxCell>
        <mxCell id="yje0GHTI1Kr3Gyo0A5Ic-130" value="&lt;font style=&quot;font-size: 9px;&quot;&gt;Отчет&lt;/font&gt;" style="edgeLabel;html=1;align=center;verticalAlign=middle;resizable=0;points=[];" vertex="1" connectable="0" parent="yje0GHTI1Kr3Gyo0A5Ic-129">
          <mxGeometry x="-0.26" y="-1" relative="1" as="geometry">
            <mxPoint as="offset" />
          </mxGeometry>
        </mxCell>
        <mxCell id="yje0GHTI1Kr3Gyo0A5Ic-133" style="edgeStyle=orthogonalEdgeStyle;rounded=0;orthogonalLoop=1;jettySize=auto;html=1;entryX=0;entryY=1;entryDx=0;entryDy=0;" edge="1" parent="1" source="yje0GHTI1Kr3Gyo0A5Ic-132" target="yje0GHTI1Kr3Gyo0A5Ic-38">
          <mxGeometry relative="1" as="geometry">
            <Array as="points">
              <mxPoint x="600" y="-50" />
              <mxPoint x="600" y="-150" />
            </Array>
          </mxGeometry>
        </mxCell>
        <mxCell id="yje0GHTI1Kr3Gyo0A5Ic-137" value="&lt;font style=&quot;font-size: 7px;&quot;&gt;Данные персонала&lt;/font&gt;&lt;div&gt;&lt;font style=&quot;font-size: 7px;&quot;&gt;&amp;nbsp;для аналитики&lt;/font&gt;&lt;/div&gt;" style="edgeLabel;html=1;align=center;verticalAlign=middle;resizable=0;points=[];" vertex="1" connectable="0" parent="yje0GHTI1Kr3Gyo0A5Ic-133">
          <mxGeometry x="-0.7425" y="-2" relative="1" as="geometry">
            <mxPoint x="17" as="offset" />
          </mxGeometry>
        </mxCell>
        <mxCell id="yje0GHTI1Kr3Gyo0A5Ic-138" value="&lt;font style=&quot;font-size: 7px;&quot;&gt;Данные персонала&lt;/font&gt;&lt;div&gt;&lt;font style=&quot;font-size: 7px;&quot;&gt;&amp;nbsp;для аналитики&lt;/font&gt;&lt;/div&gt;" style="edgeLabel;html=1;align=center;verticalAlign=middle;resizable=0;points=[];" vertex="1" connectable="0" parent="yje0GHTI1Kr3Gyo0A5Ic-133">
          <mxGeometry x="0.8013" relative="1" as="geometry">
            <mxPoint y="37" as="offset" />
          </mxGeometry>
        </mxCell>
        <mxCell id="yje0GHTI1Kr3Gyo0A5Ic-132" value="Домен персонала" style="rounded=0;whiteSpace=wrap;html=1;" vertex="1" parent="1">
          <mxGeometry x="190" y="-80" width="120" height="60" as="geometry" />
        </mxCell>
        <mxCell id="yje0GHTI1Kr3Gyo0A5Ic-134" value="" style="group" vertex="1" connectable="0" parent="1">
          <mxGeometry x="430" y="-80" width="120" height="60" as="geometry" />
        </mxCell>
        <mxCell id="yje0GHTI1Kr3Gyo0A5Ic-135" value="&lt;font style=&quot;font-size: 8px;&quot;&gt;Отправить данные&lt;/font&gt;" style="rounded=0;whiteSpace=wrap;html=1;" vertex="1" parent="yje0GHTI1Kr3Gyo0A5Ic-134">
          <mxGeometry width="120" height="60" as="geometry" />
        </mxCell>
        <mxCell id="yje0GHTI1Kr3Gyo0A5Ic-136" value="" style="endArrow=none;html=1;rounded=0;entryX=1;entryY=0.25;entryDx=0;entryDy=0;exitX=0;exitY=0.25;exitDx=0;exitDy=0;" edge="1" parent="yje0GHTI1Kr3Gyo0A5Ic-134" source="yje0GHTI1Kr3Gyo0A5Ic-135" target="yje0GHTI1Kr3Gyo0A5Ic-135">
          <mxGeometry width="50" height="50" relative="1" as="geometry">
            <mxPoint x="-100" y="30" as="sourcePoint" />
            <mxPoint x="-20" y="30" as="targetPoint" />
          </mxGeometry>
        </mxCell>
      </root>
    </mxGraphModel>
  </diagram>
</mxfile>
